<mxfile host="app.diagrams.net" modified="2023-05-09T17:21:23.765Z" agent="Mozilla/5.0 (Windows NT 10.0; Win64; x64) AppleWebKit/537.36 (KHTML, like Gecko) Chrome/112.0.0.0 Safari/537.36" etag="5kEswD0o66AevhcETbMG" version="21.2.4" type="device">
  <diagram name="Σελίδα-1" id="gIPJcoeuLJjqF6bGJ0RA">
    <mxGraphModel dx="2049" dy="1091" grid="1" gridSize="10" guides="1" tooltips="1" connect="1" arrows="1" fold="1" page="1" pageScale="1" pageWidth="1654" pageHeight="1169" math="0" shadow="0">
      <root>
        <mxCell id="0" />
        <mxCell id="1" parent="0" />
        <mxCell id="8MD2V6pWfykVniSsKf-Z-3" value="&lt;font style=&quot;font-size: 20px;&quot;&gt;SCHOOL&lt;/font&gt;" style="rounded=0;whiteSpace=wrap;html=1;" parent="1" vertex="1">
          <mxGeometry x="720" y="50" width="120" height="60" as="geometry" />
        </mxCell>
        <mxCell id="8MD2V6pWfykVniSsKf-Z-5" value="&lt;font style=&quot;font-size: 16px;&quot;&gt;RESERVATION&lt;/font&gt;" style="rounded=0;whiteSpace=wrap;html=1;" parent="1" vertex="1">
          <mxGeometry x="200" y="620" width="120" height="60" as="geometry" />
        </mxCell>
        <mxCell id="8MD2V6pWfykVniSsKf-Z-6" value="&lt;font style=&quot;font-size: 20px;&quot;&gt;REVIEW&lt;/font&gt;" style="rounded=0;whiteSpace=wrap;html=1;" parent="1" vertex="1">
          <mxGeometry x="200" y="290" width="120" height="60" as="geometry" />
        </mxCell>
        <mxCell id="8MD2V6pWfykVniSsKf-Z-7" value="&lt;font style=&quot;font-size: 20px;&quot;&gt;BORROW&lt;/font&gt;" style="rounded=0;whiteSpace=wrap;html=1;" parent="1" vertex="1">
          <mxGeometry x="530" y="790" width="120" height="60" as="geometry" />
        </mxCell>
        <mxCell id="8MD2V6pWfykVniSsKf-Z-9" value="&lt;font style=&quot;font-size: 20px;&quot;&gt;CATEGORY&lt;/font&gt;" style="rounded=0;whiteSpace=wrap;html=1;" parent="1" vertex="1">
          <mxGeometry x="1360" y="120" width="120" height="60" as="geometry" />
        </mxCell>
        <mxCell id="8MD2V6pWfykVniSsKf-Z-10" value="&lt;font style=&quot;font-size: 20px;&quot;&gt;BOOK&lt;/font&gt;" style="rounded=0;whiteSpace=wrap;html=1;" parent="1" vertex="1">
          <mxGeometry x="1100" y="430" width="120" height="60" as="geometry" />
        </mxCell>
        <mxCell id="8MD2V6pWfykVniSsKf-Z-11" value="&lt;font style=&quot;font-size: 20px;&quot;&gt;AUTHOR&lt;/font&gt;" style="rounded=0;whiteSpace=wrap;html=1;" parent="1" vertex="1">
          <mxGeometry x="1360" y="730" width="120" height="60" as="geometry" />
        </mxCell>
        <mxCell id="IquROmP5LWn76ybMcErC-4" value="" style="rounded=0;orthogonalLoop=1;jettySize=auto;html=1;exitX=0.5;exitY=0;exitDx=0;exitDy=0;entryX=0.5;entryY=1;entryDx=0;entryDy=0;" parent="1" target="8MD2V6pWfykVniSsKf-Z-3" edge="1">
          <mxGeometry relative="1" as="geometry">
            <mxPoint x="780" y="170" as="sourcePoint" />
          </mxGeometry>
        </mxCell>
        <mxCell id="IquROmP5LWn76ybMcErC-7" value="&lt;font style=&quot;font-size: 14px;&quot;&gt;Written By&lt;/font&gt;" style="shape=rhombus;perimeter=rhombusPerimeter;whiteSpace=wrap;html=1;align=center;" parent="1" vertex="1">
          <mxGeometry x="1100" y="600" width="120" height="60" as="geometry" />
        </mxCell>
        <mxCell id="IquROmP5LWn76ybMcErC-10" value="" style="endArrow=none;html=1;rounded=0;entryX=0.5;entryY=1;entryDx=0;entryDy=0;shape=link;" parent="1" target="8MD2V6pWfykVniSsKf-Z-10" edge="1">
          <mxGeometry width="50" height="50" relative="1" as="geometry">
            <mxPoint x="1160" y="600" as="sourcePoint" />
            <mxPoint x="800" y="540" as="targetPoint" />
          </mxGeometry>
        </mxCell>
        <mxCell id="IquROmP5LWn76ybMcErC-11" value="" style="endArrow=none;html=1;rounded=0;exitX=0;exitY=0.5;exitDx=0;exitDy=0;entryX=0.5;entryY=1;entryDx=0;entryDy=0;" parent="1" source="8MD2V6pWfykVniSsKf-Z-11" target="IquROmP5LWn76ybMcErC-7" edge="1">
          <mxGeometry width="50" height="50" relative="1" as="geometry">
            <mxPoint x="750" y="590" as="sourcePoint" />
            <mxPoint x="800" y="540" as="targetPoint" />
            <Array as="points">
              <mxPoint x="1160" y="760" />
            </Array>
          </mxGeometry>
        </mxCell>
        <mxCell id="IquROmP5LWn76ybMcErC-12" value="&lt;font style=&quot;font-size: 14px;&quot;&gt;Belongs to&lt;/font&gt;" style="shape=rhombus;perimeter=rhombusPerimeter;whiteSpace=wrap;html=1;align=center;" parent="1" vertex="1">
          <mxGeometry x="1100" y="240" width="120" height="60" as="geometry" />
        </mxCell>
        <mxCell id="IquROmP5LWn76ybMcErC-13" value="" style="endArrow=none;html=1;rounded=0;entryX=0.5;entryY=1;entryDx=0;entryDy=0;exitX=0.5;exitY=0;exitDx=0;exitDy=0;shape=link;" parent="1" source="8MD2V6pWfykVniSsKf-Z-10" target="IquROmP5LWn76ybMcErC-12" edge="1">
          <mxGeometry width="50" height="50" relative="1" as="geometry">
            <mxPoint x="750" y="590" as="sourcePoint" />
            <mxPoint x="800" y="540" as="targetPoint" />
          </mxGeometry>
        </mxCell>
        <mxCell id="IquROmP5LWn76ybMcErC-14" value="" style="endArrow=none;html=1;rounded=0;entryX=0;entryY=0.5;entryDx=0;entryDy=0;exitX=0.5;exitY=0;exitDx=0;exitDy=0;" parent="1" source="IquROmP5LWn76ybMcErC-12" target="8MD2V6pWfykVniSsKf-Z-9" edge="1">
          <mxGeometry width="50" height="50" relative="1" as="geometry">
            <mxPoint x="750" y="590" as="sourcePoint" />
            <mxPoint x="800" y="540" as="targetPoint" />
            <Array as="points">
              <mxPoint x="1160" y="150" />
            </Array>
          </mxGeometry>
        </mxCell>
        <mxCell id="IquROmP5LWn76ybMcErC-15" value="&lt;font style=&quot;font-size: 14px;&quot;&gt;Borrows&lt;/font&gt;" style="shape=rhombus;perimeter=rhombusPerimeter;whiteSpace=wrap;html=1;align=center;" parent="1" vertex="1">
          <mxGeometry x="720" y="790" width="120" height="60" as="geometry" />
        </mxCell>
        <mxCell id="IquROmP5LWn76ybMcErC-16" value="&lt;font style=&quot;font-size: 14px;&quot;&gt;Reserves&lt;/font&gt;" style="shape=rhombus;perimeter=rhombusPerimeter;whiteSpace=wrap;html=1;align=center;" parent="1" vertex="1">
          <mxGeometry x="530" y="620" width="120" height="60" as="geometry" />
        </mxCell>
        <mxCell id="IquROmP5LWn76ybMcErC-17" value="&lt;font style=&quot;font-size: 14px;&quot;&gt;Reviews&lt;/font&gt;" style="shape=rhombus;perimeter=rhombusPerimeter;whiteSpace=wrap;html=1;align=center;" parent="1" vertex="1">
          <mxGeometry x="480" y="290" width="120" height="60" as="geometry" />
        </mxCell>
        <mxCell id="IquROmP5LWn76ybMcErC-18" value="" style="endArrow=none;html=1;rounded=0;entryX=0;entryY=0.5;entryDx=0;entryDy=0;exitX=1;exitY=0.5;exitDx=0;exitDy=0;" parent="1" source="IquROmP5LWn76ybMcErC-17" edge="1">
          <mxGeometry width="50" height="50" relative="1" as="geometry">
            <mxPoint x="750" y="580" as="sourcePoint" />
            <mxPoint x="720" y="320" as="targetPoint" />
          </mxGeometry>
        </mxCell>
        <mxCell id="IquROmP5LWn76ybMcErC-19" value="" style="endArrow=none;html=1;rounded=0;entryX=1;entryY=0.5;entryDx=0;entryDy=0;exitX=0;exitY=0.5;exitDx=0;exitDy=0;" parent="1" source="IquROmP5LWn76ybMcErC-17" target="8MD2V6pWfykVniSsKf-Z-6" edge="1">
          <mxGeometry width="50" height="50" relative="1" as="geometry">
            <mxPoint x="760" y="590" as="sourcePoint" />
            <mxPoint x="810" y="540" as="targetPoint" />
          </mxGeometry>
        </mxCell>
        <mxCell id="IquROmP5LWn76ybMcErC-20" value="" style="endArrow=none;html=1;rounded=0;exitX=0.5;exitY=1;exitDx=0;exitDy=0;entryX=0.5;entryY=0;entryDx=0;entryDy=0;" parent="1" target="IquROmP5LWn76ybMcErC-15" edge="1">
          <mxGeometry width="50" height="50" relative="1" as="geometry">
            <mxPoint x="780" y="350" as="sourcePoint" />
            <mxPoint x="820" y="550" as="targetPoint" />
          </mxGeometry>
        </mxCell>
        <mxCell id="IquROmP5LWn76ybMcErC-21" value="" style="endArrow=none;html=1;rounded=0;exitX=1;exitY=0.5;exitDx=0;exitDy=0;entryX=0;entryY=0.5;entryDx=0;entryDy=0;" parent="1" source="8MD2V6pWfykVniSsKf-Z-7" target="IquROmP5LWn76ybMcErC-15" edge="1">
          <mxGeometry width="50" height="50" relative="1" as="geometry">
            <mxPoint x="780" y="610" as="sourcePoint" />
            <mxPoint x="830" y="560" as="targetPoint" />
          </mxGeometry>
        </mxCell>
        <mxCell id="IquROmP5LWn76ybMcErC-22" value="" style="endArrow=none;html=1;rounded=0;entryX=1;entryY=0.5;entryDx=0;entryDy=0;" parent="1" target="IquROmP5LWn76ybMcErC-16" edge="1">
          <mxGeometry width="50" height="50" relative="1" as="geometry">
            <mxPoint x="780" y="350" as="sourcePoint" />
            <mxPoint x="840" y="570" as="targetPoint" />
          </mxGeometry>
        </mxCell>
        <mxCell id="IquROmP5LWn76ybMcErC-23" value="" style="endArrow=none;html=1;rounded=0;exitX=1;exitY=0.5;exitDx=0;exitDy=0;entryX=0;entryY=0.5;entryDx=0;entryDy=0;" parent="1" source="8MD2V6pWfykVniSsKf-Z-5" target="IquROmP5LWn76ybMcErC-16" edge="1">
          <mxGeometry width="50" height="50" relative="1" as="geometry">
            <mxPoint x="800" y="630" as="sourcePoint" />
            <mxPoint x="850" y="580" as="targetPoint" />
          </mxGeometry>
        </mxCell>
        <mxCell id="IquROmP5LWn76ybMcErC-24" value="&lt;font style=&quot;font-size: 14px;&quot;&gt;Reviewed&lt;/font&gt;" style="shape=rhombus;perimeter=rhombusPerimeter;whiteSpace=wrap;html=1;align=center;" parent="1" vertex="1">
          <mxGeometry x="900" y="760" width="120" height="60" as="geometry" />
        </mxCell>
        <mxCell id="IquROmP5LWn76ybMcErC-25" value="&lt;font style=&quot;font-size: 14px;&quot;&gt;Reserved&lt;/font&gt;" style="shape=rhombus;perimeter=rhombusPerimeter;whiteSpace=wrap;html=1;align=center;" parent="1" vertex="1">
          <mxGeometry x="890" y="430" width="120" height="60" as="geometry" />
        </mxCell>
        <mxCell id="IquROmP5LWn76ybMcErC-26" value="&lt;font style=&quot;font-size: 14px;&quot;&gt;Borrowed&lt;/font&gt;" style="shape=rhombus;perimeter=rhombusPerimeter;whiteSpace=wrap;html=1;align=center;" parent="1" vertex="1">
          <mxGeometry x="860" y="330" width="120" height="60" as="geometry" />
        </mxCell>
        <mxCell id="IquROmP5LWn76ybMcErC-28" style="rounded=0;orthogonalLoop=1;jettySize=auto;html=1;entryX=1;entryY=0.5;entryDx=0;entryDy=0;exitX=0;exitY=0.5;exitDx=0;exitDy=0;" parent="1" source="IquROmP5LWn76ybMcErC-27" target="8MD2V6pWfykVniSsKf-Z-3" edge="1">
          <mxGeometry relative="1" as="geometry" />
        </mxCell>
        <mxCell id="IquROmP5LWn76ybMcErC-27" value="Belongs To Library" style="shape=rhombus;perimeter=rhombusPerimeter;whiteSpace=wrap;html=1;align=center;" parent="1" vertex="1">
          <mxGeometry x="960" y="120" width="120" height="60" as="geometry" />
        </mxCell>
        <mxCell id="IquROmP5LWn76ybMcErC-29" value="" style="endArrow=none;html=1;rounded=0;entryX=1;entryY=0.5;entryDx=0;entryDy=0;exitX=0;exitY=0.5;exitDx=0;exitDy=0;shape=link;" parent="1" source="8MD2V6pWfykVniSsKf-Z-10" target="IquROmP5LWn76ybMcErC-27" edge="1">
          <mxGeometry width="50" height="50" relative="1" as="geometry">
            <mxPoint x="750" y="440" as="sourcePoint" />
            <mxPoint x="800" y="390" as="targetPoint" />
          </mxGeometry>
        </mxCell>
        <mxCell id="IquROmP5LWn76ybMcErC-30" value="" style="endArrow=none;html=1;rounded=0;entryX=0;entryY=0.5;entryDx=0;entryDy=0;exitX=0.5;exitY=0;exitDx=0;exitDy=0;" parent="1" source="IquROmP5LWn76ybMcErC-24" target="8MD2V6pWfykVniSsKf-Z-10" edge="1">
          <mxGeometry width="50" height="50" relative="1" as="geometry">
            <mxPoint x="760" y="450" as="sourcePoint" />
            <mxPoint x="810" y="400" as="targetPoint" />
          </mxGeometry>
        </mxCell>
        <mxCell id="IquROmP5LWn76ybMcErC-31" value="" style="endArrow=none;html=1;rounded=0;entryX=0;entryY=0.5;entryDx=0;entryDy=0;exitX=1;exitY=0.5;exitDx=0;exitDy=0;" parent="1" source="IquROmP5LWn76ybMcErC-25" target="8MD2V6pWfykVniSsKf-Z-10" edge="1">
          <mxGeometry width="50" height="50" relative="1" as="geometry">
            <mxPoint x="950" y="480" as="sourcePoint" />
            <mxPoint x="820" y="410" as="targetPoint" />
          </mxGeometry>
        </mxCell>
        <mxCell id="IquROmP5LWn76ybMcErC-32" value="" style="endArrow=none;html=1;rounded=0;entryX=0;entryY=0.5;entryDx=0;entryDy=0;exitX=1;exitY=0.5;exitDx=0;exitDy=0;" parent="1" source="IquROmP5LWn76ybMcErC-26" target="8MD2V6pWfykVniSsKf-Z-10" edge="1">
          <mxGeometry width="50" height="50" relative="1" as="geometry">
            <mxPoint x="780" y="470" as="sourcePoint" />
            <mxPoint x="830" y="420" as="targetPoint" />
          </mxGeometry>
        </mxCell>
        <mxCell id="IquROmP5LWn76ybMcErC-33" value="" style="endArrow=none;html=1;rounded=0;entryX=0.5;entryY=1;entryDx=0;entryDy=0;exitX=0;exitY=0.5;exitDx=0;exitDy=0;" parent="1" source="8MD2V6pWfykVniSsKf-Z-6" target="IquROmP5LWn76ybMcErC-24" edge="1">
          <mxGeometry width="50" height="50" relative="1" as="geometry">
            <mxPoint x="790" y="480" as="sourcePoint" />
            <mxPoint x="840" y="430" as="targetPoint" />
            <Array as="points">
              <mxPoint x="40" y="320" />
              <mxPoint x="40" y="890" />
              <mxPoint x="880" y="890" />
              <mxPoint x="960" y="890" />
            </Array>
          </mxGeometry>
        </mxCell>
        <mxCell id="IquROmP5LWn76ybMcErC-34" value="" style="endArrow=none;html=1;rounded=0;entryX=0;entryY=0.5;entryDx=0;entryDy=0;exitX=0;exitY=0.5;exitDx=0;exitDy=0;" parent="1" source="8MD2V6pWfykVniSsKf-Z-5" target="IquROmP5LWn76ybMcErC-25" edge="1">
          <mxGeometry width="50" height="50" relative="1" as="geometry">
            <mxPoint x="800" y="490" as="sourcePoint" />
            <mxPoint x="850" y="440" as="targetPoint" />
            <Array as="points">
              <mxPoint x="70" y="650" />
              <mxPoint x="70" y="880" />
              <mxPoint x="890" y="880" />
            </Array>
          </mxGeometry>
        </mxCell>
        <mxCell id="IquROmP5LWn76ybMcErC-35" value="" style="endArrow=none;html=1;rounded=0;entryX=0;entryY=0.5;entryDx=0;entryDy=0;exitX=0;exitY=0.5;exitDx=0;exitDy=0;" parent="1" source="8MD2V6pWfykVniSsKf-Z-7" target="IquROmP5LWn76ybMcErC-26" edge="1">
          <mxGeometry width="50" height="50" relative="1" as="geometry">
            <mxPoint x="810" y="500" as="sourcePoint" />
            <mxPoint x="860" y="450" as="targetPoint" />
            <Array as="points">
              <mxPoint x="490" y="820" />
              <mxPoint x="490" y="860" />
              <mxPoint x="870" y="860" />
            </Array>
          </mxGeometry>
        </mxCell>
        <mxCell id="IquROmP5LWn76ybMcErC-37" style="rounded=0;orthogonalLoop=1;jettySize=auto;html=1;exitX=0.5;exitY=1;exitDx=0;exitDy=0;" parent="1" source="IquROmP5LWn76ybMcErC-39" edge="1">
          <mxGeometry relative="1" as="geometry">
            <mxPoint x="780" y="230" as="sourcePoint" />
            <mxPoint x="780" y="290" as="targetPoint" />
          </mxGeometry>
        </mxCell>
        <mxCell id="IquROmP5LWn76ybMcErC-38" style="rounded=0;orthogonalLoop=1;jettySize=auto;html=1;exitX=0.5;exitY=0;exitDx=0;exitDy=0;entryX=0.5;entryY=1;entryDx=0;entryDy=0;" parent="1" source="IquROmP5LWn76ybMcErC-39" target="8MD2V6pWfykVniSsKf-Z-3" edge="1">
          <mxGeometry relative="1" as="geometry">
            <mxPoint x="780" y="170" as="sourcePoint" />
          </mxGeometry>
        </mxCell>
        <mxCell id="IquROmP5LWn76ybMcErC-39" value="Library Operator" style="shape=rhombus;perimeter=rhombusPerimeter;whiteSpace=wrap;html=1;align=center;" parent="1" vertex="1">
          <mxGeometry x="580" y="170" width="120" height="60" as="geometry" />
        </mxCell>
        <mxCell id="IquROmP5LWn76ybMcErC-42" style="rounded=0;orthogonalLoop=1;jettySize=auto;html=1;entryX=0.5;entryY=0;entryDx=0;entryDy=0;exitX=0.5;exitY=1;exitDx=0;exitDy=0;" parent="1" source="IquROmP5LWn76ybMcErC-40" edge="1">
          <mxGeometry relative="1" as="geometry">
            <mxPoint x="780" y="290" as="targetPoint" />
          </mxGeometry>
        </mxCell>
        <mxCell id="IquROmP5LWn76ybMcErC-40" value="General Manager" style="shape=rhombus;perimeter=rhombusPerimeter;whiteSpace=wrap;html=1;align=center;" parent="1" vertex="1">
          <mxGeometry x="850" y="170" width="120" height="60" as="geometry" />
        </mxCell>
        <mxCell id="IquROmP5LWn76ybMcErC-43" value="" style="endArrow=none;html=1;rounded=0;entryX=0.5;entryY=1;entryDx=0;entryDy=0;exitX=0.5;exitY=0;exitDx=0;exitDy=0;" parent="1" source="IquROmP5LWn76ybMcErC-40" target="8MD2V6pWfykVniSsKf-Z-3" edge="1">
          <mxGeometry width="50" height="50" relative="1" as="geometry">
            <mxPoint x="610" y="330" as="sourcePoint" />
            <mxPoint x="730" y="330" as="targetPoint" />
          </mxGeometry>
        </mxCell>
        <mxCell id="IquROmP5LWn76ybMcErC-44" value="School ID" style="ellipse;whiteSpace=wrap;html=1;align=center;fontStyle=4;" parent="1" vertex="1">
          <mxGeometry x="390" width="100" height="40" as="geometry" />
        </mxCell>
        <mxCell id="IquROmP5LWn76ybMcErC-45" value="Name" style="ellipse;whiteSpace=wrap;html=1;align=center;" parent="1" vertex="1">
          <mxGeometry x="320" y="30" width="100" height="40" as="geometry" />
        </mxCell>
        <mxCell id="IquROmP5LWn76ybMcErC-46" value="Address" style="ellipse;whiteSpace=wrap;html=1;align=center;" parent="1" vertex="1">
          <mxGeometry x="300" y="70" width="100" height="40" as="geometry" />
        </mxCell>
        <mxCell id="IquROmP5LWn76ybMcErC-47" value="City" style="ellipse;whiteSpace=wrap;html=1;align=center;" parent="1" vertex="1">
          <mxGeometry x="330" y="110" width="100" height="40" as="geometry" />
        </mxCell>
        <mxCell id="IquROmP5LWn76ybMcErC-48" value="Operator&#39;s Name" style="ellipse;whiteSpace=wrap;html=1;align=center;" parent="1" vertex="1">
          <mxGeometry x="440" y="180" width="100" height="40" as="geometry" />
        </mxCell>
        <mxCell id="IquROmP5LWn76ybMcErC-49" value="Phone" style="ellipse;shape=doubleEllipse;margin=3;whiteSpace=wrap;html=1;align=center;" parent="1" vertex="1">
          <mxGeometry x="940" y="10" width="100" height="40" as="geometry" />
        </mxCell>
        <mxCell id="IquROmP5LWn76ybMcErC-51" value="" style="endArrow=none;html=1;rounded=0;entryX=0;entryY=0.5;entryDx=0;entryDy=0;exitX=1;exitY=0.5;exitDx=0;exitDy=0;" parent="1" source="IquROmP5LWn76ybMcErC-48" target="IquROmP5LWn76ybMcErC-39" edge="1">
          <mxGeometry width="50" height="50" relative="1" as="geometry">
            <mxPoint x="750" y="440" as="sourcePoint" />
            <mxPoint x="800" y="390" as="targetPoint" />
          </mxGeometry>
        </mxCell>
        <mxCell id="IquROmP5LWn76ybMcErC-53" value="" style="endArrow=none;html=1;rounded=0;entryX=0;entryY=0.5;entryDx=0;entryDy=0;exitX=1;exitY=0.5;exitDx=0;exitDy=0;" parent="1" source="IquROmP5LWn76ybMcErC-44" target="8MD2V6pWfykVniSsKf-Z-3" edge="1">
          <mxGeometry width="50" height="50" relative="1" as="geometry">
            <mxPoint x="550" y="210" as="sourcePoint" />
            <mxPoint x="590" y="210" as="targetPoint" />
          </mxGeometry>
        </mxCell>
        <mxCell id="IquROmP5LWn76ybMcErC-54" value="" style="endArrow=none;html=1;rounded=0;exitX=1;exitY=0.5;exitDx=0;exitDy=0;" parent="1" source="IquROmP5LWn76ybMcErC-45" edge="1">
          <mxGeometry width="50" height="50" relative="1" as="geometry">
            <mxPoint x="500" y="30" as="sourcePoint" />
            <mxPoint x="720" y="80" as="targetPoint" />
          </mxGeometry>
        </mxCell>
        <mxCell id="IquROmP5LWn76ybMcErC-55" value="" style="endArrow=none;html=1;rounded=0;entryX=0;entryY=0.5;entryDx=0;entryDy=0;exitX=1;exitY=0.5;exitDx=0;exitDy=0;" parent="1" source="IquROmP5LWn76ybMcErC-46" target="8MD2V6pWfykVniSsKf-Z-3" edge="1">
          <mxGeometry width="50" height="50" relative="1" as="geometry">
            <mxPoint x="510" y="40" as="sourcePoint" />
            <mxPoint x="740" y="100" as="targetPoint" />
          </mxGeometry>
        </mxCell>
        <mxCell id="IquROmP5LWn76ybMcErC-56" value="" style="endArrow=none;html=1;rounded=0;exitX=1;exitY=0.5;exitDx=0;exitDy=0;" parent="1" source="IquROmP5LWn76ybMcErC-47" edge="1">
          <mxGeometry width="50" height="50" relative="1" as="geometry">
            <mxPoint x="520" y="50" as="sourcePoint" />
            <mxPoint x="720" y="80" as="targetPoint" />
          </mxGeometry>
        </mxCell>
        <mxCell id="IquROmP5LWn76ybMcErC-57" value="" style="endArrow=none;html=1;rounded=0;entryX=0;entryY=0.5;entryDx=0;entryDy=0;exitX=1;exitY=0.5;exitDx=0;exitDy=0;" parent="1" source="8MD2V6pWfykVniSsKf-Z-3" target="IquROmP5LWn76ybMcErC-49" edge="1">
          <mxGeometry width="50" height="50" relative="1" as="geometry">
            <mxPoint x="530" y="60" as="sourcePoint" />
            <mxPoint x="760" y="120" as="targetPoint" />
          </mxGeometry>
        </mxCell>
        <mxCell id="IquROmP5LWn76ybMcErC-58" value="" style="endArrow=none;html=1;rounded=0;entryX=0;entryY=0.5;entryDx=0;entryDy=0;" parent="1" edge="1">
          <mxGeometry width="50" height="50" relative="1" as="geometry">
            <mxPoint x="840" y="80" as="sourcePoint" />
            <mxPoint x="940" y="80" as="targetPoint" />
          </mxGeometry>
        </mxCell>
        <mxCell id="IquROmP5LWn76ybMcErC-59" value="Username" style="ellipse;whiteSpace=wrap;html=1;align=center;fontStyle=4;" parent="1" vertex="1">
          <mxGeometry x="410" y="340" width="100" height="40" as="geometry" />
        </mxCell>
        <mxCell id="IquROmP5LWn76ybMcErC-60" value="Password" style="ellipse;whiteSpace=wrap;html=1;align=center;" parent="1" vertex="1">
          <mxGeometry x="390" y="380" width="100" height="40" as="geometry" />
        </mxCell>
        <mxCell id="IquROmP5LWn76ybMcErC-61" value="First Name" style="ellipse;whiteSpace=wrap;html=1;align=center;" parent="1" vertex="1">
          <mxGeometry x="320" y="420" width="100" height="40" as="geometry" />
        </mxCell>
        <mxCell id="IquROmP5LWn76ybMcErC-62" value="Last Name" style="ellipse;whiteSpace=wrap;html=1;align=center;" parent="1" vertex="1">
          <mxGeometry x="350" y="470" width="100" height="40" as="geometry" />
        </mxCell>
        <mxCell id="IquROmP5LWn76ybMcErC-63" value="Email" style="ellipse;whiteSpace=wrap;html=1;align=center;" parent="1" vertex="1">
          <mxGeometry x="460" y="500" width="100" height="40" as="geometry" />
        </mxCell>
        <mxCell id="IquROmP5LWn76ybMcErC-64" value="UserType" style="ellipse;whiteSpace=wrap;html=1;align=center;" parent="1" vertex="1">
          <mxGeometry x="500" y="540" width="100" height="40" as="geometry" />
        </mxCell>
        <mxCell id="IquROmP5LWn76ybMcErC-65" value="Email" style="ellipse;whiteSpace=wrap;html=1;align=center;" parent="1" vertex="1">
          <mxGeometry x="940" y="60" width="100" height="40" as="geometry" />
        </mxCell>
        <mxCell id="IquROmP5LWn76ybMcErC-66" value="" style="endArrow=none;html=1;rounded=0;exitX=1;exitY=0.5;exitDx=0;exitDy=0;entryX=0;entryY=0.5;entryDx=0;entryDy=0;" parent="1" source="IquROmP5LWn76ybMcErC-59" edge="1">
          <mxGeometry width="50" height="50" relative="1" as="geometry">
            <mxPoint x="610" y="330" as="sourcePoint" />
            <mxPoint x="720" y="320" as="targetPoint" />
          </mxGeometry>
        </mxCell>
        <mxCell id="IquROmP5LWn76ybMcErC-67" value="" style="endArrow=none;html=1;rounded=0;exitX=1;exitY=0.5;exitDx=0;exitDy=0;" parent="1" source="IquROmP5LWn76ybMcErC-60" edge="1">
          <mxGeometry width="50" height="50" relative="1" as="geometry">
            <mxPoint x="520" y="370" as="sourcePoint" />
            <mxPoint x="720" y="320" as="targetPoint" />
          </mxGeometry>
        </mxCell>
        <mxCell id="IquROmP5LWn76ybMcErC-68" value="" style="endArrow=none;html=1;rounded=0;exitX=1;exitY=0.5;exitDx=0;exitDy=0;entryX=0;entryY=0.5;entryDx=0;entryDy=0;" parent="1" source="IquROmP5LWn76ybMcErC-61" target="IquROmP5LWn76ybMcErC-94" edge="1">
          <mxGeometry width="50" height="50" relative="1" as="geometry">
            <mxPoint x="530" y="380" as="sourcePoint" />
            <mxPoint x="740" y="340" as="targetPoint" />
          </mxGeometry>
        </mxCell>
        <mxCell id="IquROmP5LWn76ybMcErC-69" value="" style="endArrow=none;html=1;rounded=0;exitX=1;exitY=0.5;exitDx=0;exitDy=0;entryX=0.5;entryY=1;entryDx=0;entryDy=0;" parent="1" source="IquROmP5LWn76ybMcErC-62" target="IquROmP5LWn76ybMcErC-94" edge="1">
          <mxGeometry width="50" height="50" relative="1" as="geometry">
            <mxPoint x="540" y="390" as="sourcePoint" />
            <mxPoint x="750" y="350" as="targetPoint" />
          </mxGeometry>
        </mxCell>
        <mxCell id="IquROmP5LWn76ybMcErC-70" value="" style="endArrow=none;html=1;rounded=0;exitX=1;exitY=0.5;exitDx=0;exitDy=0;entryX=0;entryY=0.5;entryDx=0;entryDy=0;" parent="1" source="IquROmP5LWn76ybMcErC-63" edge="1">
          <mxGeometry width="50" height="50" relative="1" as="geometry">
            <mxPoint x="550" y="400" as="sourcePoint" />
            <mxPoint x="720" y="320" as="targetPoint" />
          </mxGeometry>
        </mxCell>
        <mxCell id="IquROmP5LWn76ybMcErC-71" value="" style="endArrow=none;html=1;rounded=0;exitX=1;exitY=0.5;exitDx=0;exitDy=0;entryX=0;entryY=0.5;entryDx=0;entryDy=0;" parent="1" source="IquROmP5LWn76ybMcErC-64" edge="1">
          <mxGeometry width="50" height="50" relative="1" as="geometry">
            <mxPoint x="560" y="410" as="sourcePoint" />
            <mxPoint x="720" y="320" as="targetPoint" />
          </mxGeometry>
        </mxCell>
        <mxCell id="IquROmP5LWn76ybMcErC-72" value="ReviewID" style="ellipse;whiteSpace=wrap;html=1;align=center;fontStyle=4;" parent="1" vertex="1">
          <mxGeometry x="100" y="210" width="100" height="40" as="geometry" />
        </mxCell>
        <mxCell id="IquROmP5LWn76ybMcErC-73" value="Review Text" style="ellipse;whiteSpace=wrap;html=1;align=center;" parent="1" vertex="1">
          <mxGeometry x="190" y="180" width="100" height="40" as="geometry" />
        </mxCell>
        <mxCell id="IquROmP5LWn76ybMcErC-74" value="Rating" style="ellipse;whiteSpace=wrap;html=1;align=center;" parent="1" vertex="1">
          <mxGeometry x="280" y="210" width="100" height="40" as="geometry" />
        </mxCell>
        <mxCell id="IquROmP5LWn76ybMcErC-75" value="" style="endArrow=none;html=1;rounded=0;entryX=0.5;entryY=1;entryDx=0;entryDy=0;exitX=0.5;exitY=0;exitDx=0;exitDy=0;" parent="1" source="8MD2V6pWfykVniSsKf-Z-6" target="IquROmP5LWn76ybMcErC-72" edge="1">
          <mxGeometry width="50" height="50" relative="1" as="geometry">
            <mxPoint x="490" y="330" as="sourcePoint" />
            <mxPoint x="330" y="330" as="targetPoint" />
          </mxGeometry>
        </mxCell>
        <mxCell id="IquROmP5LWn76ybMcErC-76" value="" style="endArrow=none;html=1;rounded=0;entryX=0.5;entryY=1;entryDx=0;entryDy=0;" parent="1" target="IquROmP5LWn76ybMcErC-73" edge="1">
          <mxGeometry width="50" height="50" relative="1" as="geometry">
            <mxPoint x="260" y="290" as="sourcePoint" />
            <mxPoint x="160" y="260" as="targetPoint" />
          </mxGeometry>
        </mxCell>
        <mxCell id="IquROmP5LWn76ybMcErC-77" value="" style="endArrow=none;html=1;rounded=0;entryX=0.5;entryY=0;entryDx=0;entryDy=0;exitX=0;exitY=0.5;exitDx=0;exitDy=0;" parent="1" source="IquROmP5LWn76ybMcErC-74" target="8MD2V6pWfykVniSsKf-Z-6" edge="1">
          <mxGeometry width="50" height="50" relative="1" as="geometry">
            <mxPoint x="280" y="310" as="sourcePoint" />
            <mxPoint x="170" y="270" as="targetPoint" />
          </mxGeometry>
        </mxCell>
        <mxCell id="IquROmP5LWn76ybMcErC-78" value="ReservationID" style="ellipse;whiteSpace=wrap;html=1;align=center;fontStyle=4;" parent="1" vertex="1">
          <mxGeometry x="80" y="560" width="100" height="40" as="geometry" />
        </mxCell>
        <mxCell id="IquROmP5LWn76ybMcErC-79" value="Reservation Date" style="ellipse;whiteSpace=wrap;html=1;align=center;" parent="1" vertex="1">
          <mxGeometry x="150" y="500" width="100" height="40" as="geometry" />
        </mxCell>
        <mxCell id="IquROmP5LWn76ybMcErC-80" value="Expiration Date" style="ellipse;whiteSpace=wrap;html=1;align=center;" parent="1" vertex="1">
          <mxGeometry x="250" y="530" width="100" height="40" as="geometry" />
        </mxCell>
        <mxCell id="IquROmP5LWn76ybMcErC-91" value="" style="endArrow=none;html=1;rounded=0;entryX=0.5;entryY=0;entryDx=0;entryDy=0;exitX=0.396;exitY=1.046;exitDx=0;exitDy=0;exitPerimeter=0;" parent="1" source="IquROmP5LWn76ybMcErC-80" target="8MD2V6pWfykVniSsKf-Z-5" edge="1">
          <mxGeometry width="50" height="50" relative="1" as="geometry">
            <mxPoint x="280" y="700" as="sourcePoint" />
            <mxPoint x="250" y="740" as="targetPoint" />
          </mxGeometry>
        </mxCell>
        <mxCell id="IquROmP5LWn76ybMcErC-92" value="" style="endArrow=none;html=1;rounded=0;exitX=0.5;exitY=1;exitDx=0;exitDy=0;" parent="1" source="IquROmP5LWn76ybMcErC-79" edge="1">
          <mxGeometry width="50" height="50" relative="1" as="geometry">
            <mxPoint x="370" y="572" as="sourcePoint" />
            <mxPoint x="260" y="620" as="targetPoint" />
          </mxGeometry>
        </mxCell>
        <mxCell id="IquROmP5LWn76ybMcErC-93" value="" style="endArrow=none;html=1;rounded=0;exitX=0.5;exitY=1;exitDx=0;exitDy=0;" parent="1" source="IquROmP5LWn76ybMcErC-78" edge="1">
          <mxGeometry width="50" height="50" relative="1" as="geometry">
            <mxPoint x="380" y="582" as="sourcePoint" />
            <mxPoint x="260" y="620" as="targetPoint" />
          </mxGeometry>
        </mxCell>
        <mxCell id="IquROmP5LWn76ybMcErC-94" value="Name" style="ellipse;whiteSpace=wrap;html=1;align=center;" parent="1" vertex="1">
          <mxGeometry x="440" y="420" width="100" height="40" as="geometry" />
        </mxCell>
        <mxCell id="IquROmP5LWn76ybMcErC-95" value="" style="endArrow=none;html=1;rounded=0;exitX=1;exitY=0.5;exitDx=0;exitDy=0;" parent="1" source="IquROmP5LWn76ybMcErC-94" edge="1">
          <mxGeometry width="50" height="50" relative="1" as="geometry">
            <mxPoint x="500" y="410" as="sourcePoint" />
            <mxPoint x="720" y="320" as="targetPoint" />
          </mxGeometry>
        </mxCell>
        <mxCell id="IquROmP5LWn76ybMcErC-96" value="&lt;u&gt;BorrowID&lt;/u&gt;" style="ellipse;whiteSpace=wrap;html=1;align=center;" parent="1" vertex="1">
          <mxGeometry x="520" y="690" width="100" height="40" as="geometry" />
        </mxCell>
        <mxCell id="IquROmP5LWn76ybMcErC-97" value="Borrowing Date" style="ellipse;whiteSpace=wrap;html=1;align=center;" parent="1" vertex="1">
          <mxGeometry x="630" y="690" width="100" height="40" as="geometry" />
        </mxCell>
        <mxCell id="IquROmP5LWn76ybMcErC-98" value="Return Date" style="ellipse;whiteSpace=wrap;html=1;align=center;" parent="1" vertex="1">
          <mxGeometry x="660" y="740" width="100" height="40" as="geometry" />
        </mxCell>
        <mxCell id="IquROmP5LWn76ybMcErC-101" value="" style="endArrow=none;html=1;rounded=0;entryX=0.5;entryY=0;entryDx=0;entryDy=0;exitX=0.5;exitY=1;exitDx=0;exitDy=0;" parent="1" source="IquROmP5LWn76ybMcErC-96" target="8MD2V6pWfykVniSsKf-Z-7" edge="1">
          <mxGeometry width="50" height="50" relative="1" as="geometry">
            <mxPoint x="610" y="810" as="sourcePoint" />
            <mxPoint x="540" y="790" as="targetPoint" />
          </mxGeometry>
        </mxCell>
        <mxCell id="IquROmP5LWn76ybMcErC-102" value="" style="endArrow=none;html=1;rounded=0;exitX=0;exitY=0.5;exitDx=0;exitDy=0;" parent="1" source="IquROmP5LWn76ybMcErC-97" edge="1">
          <mxGeometry width="50" height="50" relative="1" as="geometry">
            <mxPoint x="620" y="820" as="sourcePoint" />
            <mxPoint x="590" y="790" as="targetPoint" />
          </mxGeometry>
        </mxCell>
        <mxCell id="IquROmP5LWn76ybMcErC-103" value="" style="endArrow=none;html=1;rounded=0;entryX=0.5;entryY=0;entryDx=0;entryDy=0;exitX=0;exitY=0.5;exitDx=0;exitDy=0;" parent="1" source="IquROmP5LWn76ybMcErC-98" target="8MD2V6pWfykVniSsKf-Z-7" edge="1">
          <mxGeometry width="50" height="50" relative="1" as="geometry">
            <mxPoint x="630" y="830" as="sourcePoint" />
            <mxPoint x="560" y="810" as="targetPoint" />
          </mxGeometry>
        </mxCell>
        <mxCell id="IquROmP5LWn76ybMcErC-105" value="Name" style="ellipse;whiteSpace=wrap;html=1;align=center;fontStyle=4;" parent="1" vertex="1">
          <mxGeometry x="1370" y="20" width="100" height="40" as="geometry" />
        </mxCell>
        <mxCell id="IquROmP5LWn76ybMcErC-108" value="" style="endArrow=none;html=1;rounded=0;entryX=0.5;entryY=1;entryDx=0;entryDy=0;exitX=0.5;exitY=0;exitDx=0;exitDy=0;" parent="1" source="8MD2V6pWfykVniSsKf-Z-9" target="IquROmP5LWn76ybMcErC-105" edge="1">
          <mxGeometry width="50" height="50" relative="1" as="geometry">
            <mxPoint x="850" y="90" as="sourcePoint" />
            <mxPoint x="950" y="40" as="targetPoint" />
          </mxGeometry>
        </mxCell>
        <mxCell id="IquROmP5LWn76ybMcErC-110" value="&lt;u&gt;AuthorID&lt;/u&gt;" style="ellipse;whiteSpace=wrap;html=1;align=center;" parent="1" vertex="1">
          <mxGeometry x="1290" y="820" width="100" height="40" as="geometry" />
        </mxCell>
        <mxCell id="IquROmP5LWn76ybMcErC-111" value="First Name" style="ellipse;whiteSpace=wrap;html=1;align=center;" parent="1" vertex="1">
          <mxGeometry x="1410" y="900" width="100" height="40" as="geometry" />
        </mxCell>
        <mxCell id="IquROmP5LWn76ybMcErC-112" value="Last Name" style="ellipse;whiteSpace=wrap;html=1;align=center;" parent="1" vertex="1">
          <mxGeometry x="1530" y="900" width="100" height="40" as="geometry" />
        </mxCell>
        <mxCell id="IquROmP5LWn76ybMcErC-113" value="" style="endArrow=none;html=1;rounded=0;exitX=0.5;exitY=0;exitDx=0;exitDy=0;entryX=0.5;entryY=1;entryDx=0;entryDy=0;" parent="1" source="IquROmP5LWn76ybMcErC-111" target="IquROmP5LWn76ybMcErC-115" edge="1">
          <mxGeometry width="50" height="50" relative="1" as="geometry">
            <mxPoint x="1610" y="780" as="sourcePoint" />
            <mxPoint x="1820" y="740" as="targetPoint" />
          </mxGeometry>
        </mxCell>
        <mxCell id="IquROmP5LWn76ybMcErC-114" value="" style="endArrow=none;html=1;rounded=0;exitX=0.5;exitY=0;exitDx=0;exitDy=0;entryX=0.5;entryY=1;entryDx=0;entryDy=0;" parent="1" source="IquROmP5LWn76ybMcErC-112" target="IquROmP5LWn76ybMcErC-115" edge="1">
          <mxGeometry width="50" height="50" relative="1" as="geometry">
            <mxPoint x="1620" y="790" as="sourcePoint" />
            <mxPoint x="1830" y="750" as="targetPoint" />
          </mxGeometry>
        </mxCell>
        <mxCell id="IquROmP5LWn76ybMcErC-115" value="Name" style="ellipse;whiteSpace=wrap;html=1;align=center;" parent="1" vertex="1">
          <mxGeometry x="1470" y="820" width="100" height="40" as="geometry" />
        </mxCell>
        <mxCell id="IquROmP5LWn76ybMcErC-116" value="" style="endArrow=none;html=1;rounded=0;entryX=0.5;entryY=1;entryDx=0;entryDy=0;exitX=0.5;exitY=0;exitDx=0;exitDy=0;" parent="1" source="IquROmP5LWn76ybMcErC-110" target="8MD2V6pWfykVniSsKf-Z-11" edge="1">
          <mxGeometry width="50" height="50" relative="1" as="geometry">
            <mxPoint x="970" y="770" as="sourcePoint" />
            <mxPoint x="1110" y="470" as="targetPoint" />
          </mxGeometry>
        </mxCell>
        <mxCell id="IquROmP5LWn76ybMcErC-117" value="" style="endArrow=none;html=1;rounded=0;exitX=0.5;exitY=0;exitDx=0;exitDy=0;" parent="1" source="IquROmP5LWn76ybMcErC-115" edge="1">
          <mxGeometry width="50" height="50" relative="1" as="geometry">
            <mxPoint x="1350" y="830" as="sourcePoint" />
            <mxPoint x="1420" y="790" as="targetPoint" />
          </mxGeometry>
        </mxCell>
        <mxCell id="IquROmP5LWn76ybMcErC-118" value="ISBN" style="ellipse;whiteSpace=wrap;html=1;align=center;fontStyle=4;" parent="1" vertex="1">
          <mxGeometry x="1330" y="240" width="100" height="40" as="geometry" />
        </mxCell>
        <mxCell id="IquROmP5LWn76ybMcErC-119" value="Title" style="ellipse;whiteSpace=wrap;html=1;align=center;" parent="1" vertex="1">
          <mxGeometry x="1410" y="270" width="100" height="40" as="geometry" />
        </mxCell>
        <mxCell id="IquROmP5LWn76ybMcErC-120" value="Publisher" style="ellipse;whiteSpace=wrap;html=1;align=center;" parent="1" vertex="1">
          <mxGeometry x="1440" y="310" width="100" height="40" as="geometry" />
        </mxCell>
        <mxCell id="IquROmP5LWn76ybMcErC-121" value="Pages" style="ellipse;whiteSpace=wrap;html=1;align=center;" parent="1" vertex="1">
          <mxGeometry x="1480" y="350" width="100" height="40" as="geometry" />
        </mxCell>
        <mxCell id="IquROmP5LWn76ybMcErC-122" value="Summary" style="ellipse;whiteSpace=wrap;html=1;align=center;" parent="1" vertex="1">
          <mxGeometry x="1500" y="390" width="100" height="40" as="geometry" />
        </mxCell>
        <mxCell id="IquROmP5LWn76ybMcErC-123" value="Available Copies" style="ellipse;whiteSpace=wrap;html=1;align=center;" parent="1" vertex="1">
          <mxGeometry x="1520" y="430" width="100" height="40" as="geometry" />
        </mxCell>
        <mxCell id="IquROmP5LWn76ybMcErC-124" value="Image" style="ellipse;whiteSpace=wrap;html=1;align=center;" parent="1" vertex="1">
          <mxGeometry x="1500" y="470" width="100" height="40" as="geometry" />
        </mxCell>
        <mxCell id="IquROmP5LWn76ybMcErC-125" value="Language" style="ellipse;whiteSpace=wrap;html=1;align=center;" parent="1" vertex="1">
          <mxGeometry x="1460" y="510" width="100" height="40" as="geometry" />
        </mxCell>
        <mxCell id="IquROmP5LWn76ybMcErC-127" value="Keywords" style="ellipse;whiteSpace=wrap;html=1;align=center;" parent="1" vertex="1">
          <mxGeometry x="1420" y="550" width="100" height="40" as="geometry" />
        </mxCell>
        <mxCell id="IquROmP5LWn76ybMcErC-128" value="" style="endArrow=none;html=1;rounded=0;entryX=1;entryY=0.5;entryDx=0;entryDy=0;exitX=0;exitY=0.5;exitDx=0;exitDy=0;" parent="1" source="IquROmP5LWn76ybMcErC-118" target="8MD2V6pWfykVniSsKf-Z-10" edge="1">
          <mxGeometry width="50" height="50" relative="1" as="geometry">
            <mxPoint x="1430" y="130" as="sourcePoint" />
            <mxPoint x="1340" y="60" as="targetPoint" />
          </mxGeometry>
        </mxCell>
        <mxCell id="IquROmP5LWn76ybMcErC-129" value="" style="endArrow=none;html=1;rounded=0;entryX=1;entryY=0.5;entryDx=0;entryDy=0;exitX=0;exitY=0.5;exitDx=0;exitDy=0;" parent="1" source="IquROmP5LWn76ybMcErC-119" target="8MD2V6pWfykVniSsKf-Z-10" edge="1">
          <mxGeometry width="50" height="50" relative="1" as="geometry">
            <mxPoint x="1340" y="270" as="sourcePoint" />
            <mxPoint x="1230" y="470" as="targetPoint" />
          </mxGeometry>
        </mxCell>
        <mxCell id="IquROmP5LWn76ybMcErC-130" value="" style="endArrow=none;html=1;rounded=0;exitX=0;exitY=0.5;exitDx=0;exitDy=0;" parent="1" source="IquROmP5LWn76ybMcErC-120" edge="1">
          <mxGeometry width="50" height="50" relative="1" as="geometry">
            <mxPoint x="1420" y="300" as="sourcePoint" />
            <mxPoint x="1220" y="460" as="targetPoint" />
          </mxGeometry>
        </mxCell>
        <mxCell id="IquROmP5LWn76ybMcErC-131" value="" style="endArrow=none;html=1;rounded=0;exitX=0;exitY=0.5;exitDx=0;exitDy=0;" parent="1" source="IquROmP5LWn76ybMcErC-121" edge="1">
          <mxGeometry width="50" height="50" relative="1" as="geometry">
            <mxPoint x="1450" y="340" as="sourcePoint" />
            <mxPoint x="1220" y="460" as="targetPoint" />
          </mxGeometry>
        </mxCell>
        <mxCell id="IquROmP5LWn76ybMcErC-132" value="" style="endArrow=none;html=1;rounded=0;exitX=0;exitY=0.5;exitDx=0;exitDy=0;" parent="1" source="IquROmP5LWn76ybMcErC-122" edge="1">
          <mxGeometry width="50" height="50" relative="1" as="geometry">
            <mxPoint x="1490" y="380" as="sourcePoint" />
            <mxPoint x="1220" y="460" as="targetPoint" />
          </mxGeometry>
        </mxCell>
        <mxCell id="IquROmP5LWn76ybMcErC-133" value="" style="endArrow=none;html=1;rounded=0;exitX=0;exitY=0.5;exitDx=0;exitDy=0;entryX=1;entryY=0.5;entryDx=0;entryDy=0;" parent="1" source="IquROmP5LWn76ybMcErC-123" target="8MD2V6pWfykVniSsKf-Z-10" edge="1">
          <mxGeometry width="50" height="50" relative="1" as="geometry">
            <mxPoint x="1510" y="420" as="sourcePoint" />
            <mxPoint x="1230" y="470" as="targetPoint" />
          </mxGeometry>
        </mxCell>
        <mxCell id="IquROmP5LWn76ybMcErC-134" value="" style="endArrow=none;html=1;rounded=0;exitX=0;exitY=0.5;exitDx=0;exitDy=0;entryX=1;entryY=0.5;entryDx=0;entryDy=0;" parent="1" source="IquROmP5LWn76ybMcErC-124" target="8MD2V6pWfykVniSsKf-Z-10" edge="1">
          <mxGeometry width="50" height="50" relative="1" as="geometry">
            <mxPoint x="1530" y="460" as="sourcePoint" />
            <mxPoint x="1230" y="470" as="targetPoint" />
          </mxGeometry>
        </mxCell>
        <mxCell id="IquROmP5LWn76ybMcErC-135" value="" style="endArrow=none;html=1;rounded=0;exitX=0;exitY=0.5;exitDx=0;exitDy=0;entryX=1;entryY=0.5;entryDx=0;entryDy=0;" parent="1" source="IquROmP5LWn76ybMcErC-125" target="8MD2V6pWfykVniSsKf-Z-10" edge="1">
          <mxGeometry width="50" height="50" relative="1" as="geometry">
            <mxPoint x="1540" y="470" as="sourcePoint" />
            <mxPoint x="1240" y="480" as="targetPoint" />
          </mxGeometry>
        </mxCell>
        <mxCell id="IquROmP5LWn76ybMcErC-137" value="" style="endArrow=none;html=1;rounded=0;exitX=0;exitY=0.5;exitDx=0;exitDy=0;entryX=1;entryY=0.5;entryDx=0;entryDy=0;" parent="1" source="IquROmP5LWn76ybMcErC-127" target="8MD2V6pWfykVniSsKf-Z-10" edge="1">
          <mxGeometry width="50" height="50" relative="1" as="geometry">
            <mxPoint x="1480" y="550" as="sourcePoint" />
            <mxPoint x="1240" y="480" as="targetPoint" />
          </mxGeometry>
        </mxCell>
        <mxCell id="SfEP7w6LC1NKlw6G-5Dp-1" value="&lt;font style=&quot;font-size: 20px;&quot;&gt;USER&lt;/font&gt;" style="whiteSpace=wrap;html=1;align=center;" parent="1" vertex="1">
          <mxGeometry x="720" y="290" width="120" height="60" as="geometry" />
        </mxCell>
        <mxCell id="SfEP7w6LC1NKlw6G-5Dp-5" value="" style="endArrow=none;html=1;rounded=0;entryX=0.5;entryY=1;entryDx=0;entryDy=0;exitX=0.5;exitY=0;exitDx=0;exitDy=0;" parent="1" source="SfEP7w6LC1NKlw6G-5Dp-1" edge="1">
          <mxGeometry width="50" height="50" relative="1" as="geometry">
            <mxPoint x="680" y="430" as="sourcePoint" />
            <mxPoint x="780" y="230" as="targetPoint" />
          </mxGeometry>
        </mxCell>
        <mxCell id="SfEP7w6LC1NKlw6G-5Dp-6" value="Student-Teacher" style="shape=rhombus;perimeter=rhombusPerimeter;whiteSpace=wrap;html=1;align=center;" parent="1" vertex="1">
          <mxGeometry x="720" y="170" width="120" height="60" as="geometry" />
        </mxCell>
      </root>
    </mxGraphModel>
  </diagram>
</mxfile>
